<?xml version="1.0" encoding="utf-8"?>
<!-- Generator: Adobe Illustrator 25.2.1, SVG Export Plug-In . SVG Version: 6.00 Build 0)  -->
<svg version="1.1" id="Lager_1" xmlns="http://www.w3.org/2000/svg" xmlns:xlink="http://www.w3.org/1999/xlink" x="0px" y="0px"
	 viewBox="0 0 500 500" style="enable-background:new 0 0 500 500;" xml:space="preserve">
<style type="text/css">
	.st0{opacity:0.52;enable-background:new    ;}
	.st1{fill:#CCCECE;}
	.st2{opacity:0.15;enable-background:new    ;}
	.st3{fill:#8E8E8E;}
	.st4{fill:#A8A8A8;}
	.st5{opacity:0.1;enable-background:new    ;}
	.st6{opacity:0.25;enable-background:new    ;}
	.st7{opacity:0.39;enable-background:new    ;}
	.st8{fill:#E2E2E2;}
	.st9{opacity:0.32;enable-background:new    ;}
	.st10{opacity:0.32;}
	.st11{fill:#828282;}
	.st12{fill:#6D6D6D;}
	.st13{opacity:5.000000e-02;enable-background:new    ;}
	.st14{opacity:0.53;enable-background:new    ;}
	.st15{fill:#BCBCBC;}
	.st16{fill:#FFFFFF;}
	.st17{opacity:0.2;enable-background:new    ;}
	.st18{fill:#686868;}
	.st19{opacity:7.000000e-02;enable-background:new    ;}
	.st20{fill:none;}
	.st21{enable-background:new    ;}
	.st22{fill:#777777;}
</style>
<g id="Lager_2_1_">
</g>
<g id="Lager_1_1_">
	<g>
		<g class="st0">
			<ellipse class="st1" cx="395.3" cy="161.8" rx="94.9" ry="8.4"/>
		</g>
		<g class="st2">
			<ellipse cx="396.8" cy="160.7" rx="75.2" ry="5.2"/>
		</g>
	</g>
	<g>
		<g class="st0">
			<ellipse class="st1" cx="203.4" cy="245" rx="112.4" ry="9.7"/>
		</g>
		<g class="st2">
			<ellipse cx="205.2" cy="243.7" rx="89" ry="6"/>
		</g>
	</g>
	<g>
		<g class="st0">
			<ellipse class="st1" cx="387.8" cy="228.4" rx="94.9" ry="5.1"/>
		</g>
		<g class="st2">
			<ellipse cx="389.3" cy="227.7" rx="75.2" ry="3.1"/>
		</g>
	</g>
	<g class="st0">
		<ellipse class="st1" cx="421.7" cy="141.3" rx="76.8" ry="10.1"/>
	</g>
	<g class="st2">
		<ellipse cx="431.4" cy="139.9" rx="60.8" ry="6.3"/>
	</g>
	<g>
		<path class="st3" d="M486.1,95.9c0,0-1.5,14.9-3.6,27.8c-0.9,5.9-2,11.4-3,14.9c-0.7,2.2-1.3,3.5-1.9,3.7
			c-3.8,0.9-26.6,2.6-36.5,2.8s-60.1-2.8-63.9-6.5c-0.6-0.6-1.2-1.7-1.8-3.1c-1.1-2.6-2.1-6.4-3-10.1c-1.8-7.4-3-14.9-3-14.9
			l50.6-5.6L486.1,95.9z"/>
	</g>
	<g>
		<path class="st4" d="M486.1,95.9L486.1,95.9C486,95.9,486,95.9,486.1,95.9C486,95.9,486,95.9,486.1,95.9c-0.5,0.3-29,19-44.4,22.9
			l-72.4-8.5c0,0,2.5-4.4,7.2-10.4c1-1.3,2.1-2.6,3.4-4l0,0c3.2-3.6,7-7.5,11.5-11.2c11.6-9.5,42-4.8,68.6,2.6
			c6.6,1.9,13,3.9,18.8,5.9C481.3,94.2,483.7,95.1,486.1,95.9z"/>
	</g>
	<g class="st5">
		<path d="M486.1,95.9c0,0-4.7,45.4-8.5,46.3s-26.6,2.6-36.5,2.8s-60.1-2.8-63.9-6.5c-1.7-1.6-3.4-7.4-4.9-13.3
			c10.6,3.8,35,12.6,41.4,14c8.3,1.8,36.6,0.8,41.7,0C460.5,138.5,486.1,95.9,486.1,95.9z"/>
	</g>
	<g class="st6">
		<path d="M482.5,123.7c-1.5,9.6-3.3,18.2-4.9,18.5c-3.8,0.9-26.6,2.6-36.5,2.8s-60.1-2.8-63.9-6.5c-0.6-0.6-1.2-1.7-1.8-3.1
			c5,1.6,18.7,5.4,42,7.1c30.2,2.2,49.6-1.1,53.7-2C473.9,140,479.5,129.6,482.5,123.7z"/>
	</g>
	<g class="st7">
		<path class="st8" d="M475.9,94c0,0,2.2,1.3,3,1.8s-2.1,3-2.1,3s3.2-1.3,5.1-2.4C483.9,95.3,475.9,94,475.9,94z"/>
	</g>
	<g class="st6">
		<path d="M486.1,95.9c0,0-1.5,14.9-3.6,27.8c-0.9,5.9-2,11.4-3,14.9l0,0c1.1-4.5,4.1-37.3,4.1-37.3c-13.6,10.7-41.5,17.3-41.7,17.3
			L486.1,95.9z"/>
	</g>
	<g>
		<path class="st1" d="M486.1,95.9c-0.3,0.2-40.3,20.1-44.6,20c-4.3-0.2-72.3-5.5-72.3-5.5l70.4,8.2c0,0.1,3.3,18.8,3.3,18.9
			l-0.5-18.5c0-0.2,0-0.3,0-0.5C458,114.3,485.6,96.3,486.1,95.9C486,95.9,486,95.9,486.1,95.9L486.1,95.9L486.1,95.9z"/>
	</g>
	<g class="st9">
		<path class="st8" d="M398.5,84.2c0,0-14.3,9.5-16.9,14.7s30.5,1.9,41.2,2.7c10.7,0.8,26.3,3.5,38-4.6
			C472.5,89,407.9,77.3,398.5,84.2z"/>
	</g>
	<g class="st7">
		<path class="st8" d="M384.6,97c0,0,16.5-8.9,20.8-9.9s24.1,0.1,28.1,2.1s29.7,5.7,29.7,5.7s-25.6-6.9-28.9-8.1s-22.9-3.6-26.7-2.3
			C403.9,85.6,384.6,97,384.6,97z"/>
	</g>
	<g class="st0">
		<ellipse class="st1" cx="128.9" cy="146.7" rx="127.2" ry="16.4"/>
	</g>
	<g class="st2">
		<ellipse cx="128.3" cy="144.5" rx="100.7" ry="10.2"/>
	</g>
	<g>
		<path class="st3" d="M226.9,99.6c0,0-4.6,13.6-10.1,25.3c-3.9,8.2-8.2,15.4-11.7,16.1c-5.4,1-23.3,4.4-43.2,6.7
			c-9.4,1.1-19.2,1.9-28.3,2.1c-1.2,0-2.4,0.1-3.5,0.1c-28.8,0.3-85.1,5.9-98.3-8.3c-0.2-0.2-0.3-0.4-0.5-0.5
			c-0.4-0.5-0.8-1-1.2-1.6c-2-2.8-3.8-6.2-5.4-9.9c-7.1-16.6-9.5-38.8-9.5-38.8h13.7L81.5,96l70.2,1.5l4.9,0.1l11.6,0.3l47.4,1.5
			L226.9,99.6z"/>
	</g>
	<g class="st5">
		<path d="M226.9,99.6c0,0-13.5,39.8-21.8,41.4s-45.9,8.6-75.1,8.9c-28.8,0.3-85.1,5.9-98.3-8.3c-0.2-0.2-0.3-0.4-0.5-0.5
			c-2.6-3.1-4.7-7.1-6.6-11.4c12.2,1.3,40.5,4.7,51.4,7.7c14.1,3.9,69.8,6.3,87.2-8.3c13.9-11.7,41.6-5.8,52.2-29.7L226.9,99.6z"/>
	</g>
	<g class="st6">
		<path d="M33.8,112.1c0,0-2.5,15.4-2,29.4c-0.2-0.2-0.3-0.4-0.5-0.5c-12.2-14.9-16.1-50.3-16.1-50.3H25l9.5,4.4L33.8,112.1z"/>
	</g>
	<g class="st6">
		<path d="M161.9,147.6c-9.4,1.1-19.2,1.9-28.3,2.1c-3.2-13.2-7.2-30.1-7.2-30.1l14.1-19.8c0,0,5.7-2,11.1-2.5
			c1.7-0.2,3.4-0.2,4.9,0.1c2,0.4,3.6,1.3,4.2,3C162.2,105.3,162.1,132,161.9,147.6z"/>
	</g>
	<g>
		<path class="st4" d="M226,100.3c-0.3,0-0.8,0.1-1.4,0.1l0,0c0,0,0,0-0.1,0s-0.1,0-0.2,0c0,0,0,0-0.1,0s-0.1,0-0.2,0c0,0,0,0-0.1,0
			s-0.2,0-0.3,0c-11.5,1.1-53.4,6.8-61.6,8.7c-8.9,2.1-24,17.2-36.7,16.7c-12.8-0.5-88.9-6-92.3-8.3c-1.6-1.1-5.3-6.4-8.9-11.9l0,0
			c-4.3-6.5-8.3-13.1-8.3-13.1c-6.1-9.7,27.6-15.1,61.5-18.2s101.4-7,101.4-7C209.8,73.4,232,100,226,100.3z"/>
	</g>
	<g class="st5">
		<path d="M207.4,79.8c-9.5-2.5,8.7,19.9-5.3,27.8s32,0.8,32,0.8S216.9,82.3,207.4,79.8z"/>
	</g>
	<g>
		<path class="st1" d="M223.7,100.5c-11.5,1.1-53.4,6.8-61.6,8.7c-8.9,2.1-24,17.2-36.7,16.7c-12.8-0.5-88.9-6-92.3-8.3
			c-1.6-1.1-5.3-6.4-8.9-11.9c0.2,0.3,7.2,9.5,10.9,11s79.7,6.8,89.5,6.8s27.4-14.1,34.6-15.9C166,105.8,216.5,101.1,223.7,100.5z"
			/>
	</g>
	<g class="st6">
		<path d="M216.8,124.8c-3.9,8.2-8.2,15.4-11.7,16.1c-5.4,1-23.3,4.4-43.2,6.7c-9.4,1.1-19.2,1.9-28.3,2.1c-1.2,0-2.4,0.1-3.5,0.1
			c-28.8,0.3-85.1,5.9-98.3-8.3c-0.2-0.2-0.3-0.4-0.5-0.5c-0.4-0.5-0.8-1-1.2-1.6c2.9,1.3,6.9,3.2,11.4,5.3c9.6,4.5,50.3,4.5,61.5,4
			s58.8-2.1,78.7-6.6C197.8,138.4,207.3,134.5,216.8,124.8z"/>
	</g>
	<g class="st10">
		<g>
			<path class="st8" d="M88.1,76.4c-24.9,1.8-36.8,5.2-54.8,8c-2.2,0.3-4.6,0.8-6.1,2.6c-1.5,1.9-1.3,4.7,0,6.8
				c1.2,2.1,3.3,3.5,5.4,4.7c15.5,9,34.6,9.2,52.3,6.4c17.7-2.8,34.9-8.4,52.8-10.2c19.5-2,39.3,0.6,58.9-1.1
				c1.9-0.2,3.8-0.4,5.3-1.6c2.4-1.9,2.6-5.6,1.1-8.2c-1.4-2.7-4-4.4-6.7-5.9c-17.7-9.7-39.1-8-59.2-6.1
				C120.8,73.3,104.5,74.9,88.1,76.4"/>
		</g>
	</g>
	<g>
		<polygon class="st11" points="132.9,106.4 122.3,111.4 117.4,110.1 122.6,112.8 127.8,119.9 123.9,112.1 		"/>
	</g>
	<g>
		<g>
			<path class="st1" d="M111.4,131.2c0,0-3.9-1.3-3.2,0.4c0.7,1.7,1.6,2.1,3.9,3.1c2.4,1.1,1.8-0.1,4.5-0.7c2.7-0.6,3.6-2.2,1.9-3.8
				C116.8,128.8,114.4,131.6,111.4,131.2z"/>
		</g>
		<g>
			<path class="st12" d="M111.1,130.8c0,0-3.9-1.3-3.2,0.4c0.7,1.7,1.6,2.1,3.9,3.1s1.8-0.1,4.5-0.7c2.7-0.6,3.6-2.2,1.9-3.8
				C116.5,128.4,114.2,131.2,111.1,130.8z"/>
		</g>
	</g>
	<g class="st10">
		<g>
			<path class="st8" d="M51.8,83.4c-3.8,0.8-8.1,1.8-11.2,2.7c-1.7,0.5-3.7,1.1-4.3,2.8c-0.7,1.8,0.6,3.9,2.4,4.7
				c1.8,0.8,3.8,0.7,5.7,0.5c7.9-0.6,15.9-1.2,23.8-1.7c7.8-0.6,15.6-1.1,23.2-2.7c8-1.7,15.8-4.4,23.8-5.8c9.9-1.7,20-1.4,30.1-1.1
				c12.5,0.4,24.9,0.8,37.4,1.2c2.3,0.1,5.3-0.5,5.4-2.8c0-1.6-1.6-2.7-3.1-3.3c-4.4-1.8-9.2-2.5-13.9-3c-31.2-3.2-62.4,4.5-93.7,6
				C68.7,81.3,60,81.3,51.8,83.4"/>
		</g>
	</g>
	<g class="st0">
		<ellipse class="st1" cx="271" cy="175.3" rx="174.4" ry="22.4"/>
	</g>
	<g class="st2">
		<ellipse cx="327" cy="187" rx="138" ry="13.9"/>
	</g>
	<g>
		<path class="st3" d="M447.9,144.3c-5.1,11.3-16.4,36.2-33.1,38.2c-16.7,1.9-31.9-6.6-43.6-2.3s-33.9,8.2-54.5,14
			c-1.8,0.5-3.5,0.9-5.3,1.3c-19.1,3.6-39.1-1.4-51.5-3.6c-1.3-0.2-2.9-0.6-4.6-1.1c-7.6-2.1-18.4-6.5-27.7-10.4
			c-4.3-1.9-8.4-3.6-11.6-5.1c-4.5-2-7.6-6.2-8.2-11.1l-0.2-1.8l-5.2-41.1l14.4-10.7L247,88.2L355.2,50l52.6,3.7l24.7,1.7
			C432.5,55.5,453,133,447.9,144.3z"/>
	</g>
	<g class="st13">
		<path d="M327.2,131.1c-2.5,10.3-15.7,14.5-15.7,28.7c0,11.7,0,26.6-0.2,35.6c-19.1,3.6-39.1-1.4-51.5-3.6
			c-1.3-0.2-2.9-0.6-4.6-1.1c-5.5-9.9-13.4-26.9-15.8-47c-0.8-6.9-3.5-13-7.2-18.2c3.4-5.2,5-6.2,15.3-14.9
			c13.2-11.1,29.9-22.9,29.9-22.9s5.6-4,14.7-5.1c9-1,31,8.5,31,8.5s0.2,11.4,1.1,13.9C325.2,107.5,329.7,120.7,327.2,131.1z"/>
	</g>
	<g class="st6">
		<path d="M255.2,190.8c-11.1-3.1-29.2-11-39.3-15.5c-4.5-2-7.6-6.2-8.2-11.1l-5.4-42.9l14.4-10.7c10.5,7.4,20.8,18.3,22.6,33.1
			C241.8,163.8,249.7,180.9,255.2,190.8z"/>
	</g>
	<g class="st6">
		<path d="M232,182.2c0.8,0.3,1.7,0.7,2.5,1C233.6,182.9,232.8,182.6,232,182.2z"/>
	</g>
	<g class="st5">
		<path d="M447.9,144.3c-5.1,11.3-16.4,36.2-33.1,38.2c-16.7,1.9-31.9-6.6-43.6-2.3s-33.9,8.2-54.5,14s-43.2,0-56.9-2.3
			c-1.3-0.2-2.9-0.6-4.6-1.1c-11.1-3.1-29.2-11-39.3-15.5c-3-1.4-5.5-3.7-6.9-6.7c-0.7-1.4-1.1-2.8-1.3-4.4l-0.2-1.8
			c8.4,5.8,25.7,16.1,41.2,15.1c21.5-1.4,45.1,6.5,64.5,0.1c19.4-6.5,55.8-18.8,77.7-19s62.4-50.6,17.3-104.3
			c-0.1-0.2-0.3-0.3-0.4-0.5l24.7,1.7c0,0,14.4,54.6,16,78.8C448.9,139,448.7,142.5,447.9,144.3z"/>
	</g>
	<g>
		<path class="st4" d="M289,101.8c0,0-1,2.1-2.5,5.3c-2.5,5.5-6.5,14.2-9.2,20.8c-4.3,10.5-30.4,24.9-36.6,24.5
			c-6.2-0.4-28.4-12.1-30-14s-11.7-12.1-7.4-20.3c1.4-2.6,4.2-7.6,7.4-13.3c6.9-12,15.5-26.7,15.5-26.7l24.1,9L289,101.8z"/>
	</g>
	<g class="st6">
		<path d="M447.9,144.3c-5.1,11.3-16.4,36.2-33.1,38.2c-16.7,1.9-31.9-6.6-43.6-2.3s-33.9,8.2-54.5,14s-43.2,0-56.9-2.3
			c-1.3-0.2-2.9-0.6-4.6-1.1c-11.1-3.1-29.2-11-39.3-15.5c-3-1.4-5.5-3.7-6.9-6.7c6.8,3,26.1,11.4,33.1,14.8
			c8.5,4.1,13.8,6.2,27.5,7.4c13.8,1.2,28.6,4.1,47.7,0c19.2-4.1,31.8-11.5,43.1-14.8c11.3-3.3,11.8-4.4,26.4-3s22,2.4,35.3-5.4
			c6.9-4.1,15.9-16.7,23-27.9c1.2-1.8,0.9-15.1,2-16.8C447.5,127.4,448.7,142.5,447.9,144.3z"/>
	</g>
	<g class="st14">
		<path class="st8" d="M286.5,107.1c0,0-18.3,5-26.4,5.8s-27.3,2.3-38.2-1c-5.4-1.6-8.9-4.4-11.2-6.9c6.9-12,15.5-26.7,15.5-26.7
			l24.1,9C267.6,97.1,286.5,107.1,286.5,107.1z"/>
	</g>
	<g>
		<path class="st15" d="M432.5,55.5c0,0-2.6,9-8.1,19.3c-4.7,8.8-11.7,18.6-21.1,24.5c-20.5,12.9-38,4.7-44.4,3.5
			s-25.7-2.9-33.9-4.7c-8.2-1.8-30.4,14.6-42.7,7.6c-10.1-5.8-41.4-19-52.3-24.8l0,0c-2.4-1.3-3.8-2.2-3.8-2.6
			c0-2.3,40.3-21.6,53.8-38c8.3-10.1,36.2-16.1,56.4-19.3c14-2.2,28.3,0.1,40.9,6.5L432.5,55.5z"/>
	</g>
	<g>
		<path class="st8" d="M424.4,74.8L424.4,74.8c-4.7,8.8-11.7,18.6-21.1,24.5c-20.5,12.9-38,4.7-44.4,3.5s-25.7-2.9-33.9-4.7
			c-8.2-1.8-30.4,14.6-42.7,7.6c-10.1-5.8-41.4-19-52.3-24.8c0.4,0.2,53.1,21.3,58.9,20.9c5.8-0.4,23.4-7.3,29-8.5
			s16.5,2.9,25.4,4.1s27.7,7.8,39.4,6.4C394.6,102.4,415.4,90.7,424.4,74.8z"/>
	</g>
	<g class="st9">
		<path class="st8" d="M393.9,40.5c-10.7-5.3-23.8-15.8-43.1-16.4c-19.3-0.6-45.5,2.9-54,11.9s-13.2,10.4-22,17.8
			s-38.4,12.1-15,23.1s42.4,4.8,73.8-2s73-11.5,75.7-18.4C412,49.5,400.1,43.6,393.9,40.5z"/>
	</g>
	<g class="st9">
		<path class="st8" d="M344,28c0,0-15.5-3.1-26.4,5.4s-15.1,10.3-22.1,14.3c-7,3.9-29.3,14-29.9,16.2c-0.6,2.2,3.9,5.7,19,2
			c15.1-3.7,20.9-10.9,40.1-15.8s41.5-10.7,44.4-14.2S354.2,30.9,344,28z"/>
	</g>
	<g>
		<g class="st0">
			<ellipse class="st1" cx="70.2" cy="177.8" rx="63.4" ry="7.8"/>
		</g>
		<g class="st2">
			<ellipse cx="71.2" cy="176.7" rx="50.2" ry="4.8"/>
		</g>
		<g>
			<path class="st3" d="M120.4,155.4c0,0-2.3,6.5-5,12c-1.9,3.9-4.1,7.4-5.8,7.7c-2.7,0.5-11.6,2.1-21.6,3.2
				c-4.7,0.5-9.6,0.9-14.1,1c-0.6,0-1.2,0-1.8,0c-14.4,0.1-42.4,2.8-49-4c-0.1-0.1-0.2-0.2-0.2-0.3c-0.2-0.2-0.4-0.5-0.6-0.7
				c-1-1.3-1.9-3-2.7-4.7c-3.5-7.9-4.7-18.5-4.7-18.5h6.8l26.2,2.5l35,0.7l2.4,0.1l5.8,0.1l23.6,0.7L120.4,155.4z"/>
		</g>
		<g class="st5">
			<path d="M120.4,155.4c0,0-6.7,19-10.9,19.7c-4.2,0.7-22.9,4.1-37.4,4.2c-14.4,0.1-42.4,2.8-49-4c-0.1-0.1-0.2-0.2-0.2-0.3
				c-1.3-1.5-2.4-3.4-3.3-5.5c6.1,0.6,20.2,2.2,25.6,3.7c7,1.9,34.8,3,43.5-4c7-5.6,20.7-2.8,26-14.1L120.4,155.4z"/>
		</g>
		<g class="st6">
			<path d="M24,161.3c0,0-1.2,7.3-1,14c-0.1-0.1-0.2-0.2-0.2-0.3c-6.1-7.1-8-24-8-24h4.9l4.7,2.1L24,161.3z"/>
		</g>
		<g class="st6">
			<path d="M87.9,178.2c-4.7,0.5-9.6,0.9-14.1,1c-1.6-6.3-3.6-14.3-3.6-14.3l7-9.4c0,0,2.9-1,5.6-1.2c0.9-0.1,1.7-0.1,2.4,0.1
				c1,0.2,1.8,0.6,2.1,1.4C88.1,158.1,88,170.8,87.9,178.2z"/>
		</g>
		<g>
			<path class="st4" d="M119.9,155.7c-0.2,0-0.4,0-0.7,0.1l0,0l0,0h-0.1l0,0H119l0,0h-0.1c-5.7,0.5-26.6,3.2-30.7,4.1
				c-4.4,1-12,8.2-18.3,7.9c-6.4-0.2-44.3-2.9-46-4c-0.8-0.5-2.6-3.1-4.4-5.7l0,0c-2.1-3.1-4.1-6.2-4.1-6.2
				c-3-4.6,13.8-7.2,30.7-8.7s50.6-3.4,50.6-3.4C111.8,142.9,122.9,155.6,119.9,155.7z"/>
		</g>
		<g>
			<path class="st1" d="M118.8,155.8c-5.7,0.5-26.6,3.2-30.7,4.1c-4.4,1-12,8.2-18.3,7.9c-6.4-0.2-44.3-2.9-46-4
				c-0.8-0.5-2.6-3.1-4.4-5.7c0.1,0.1,3.6,4.5,5.4,5.2c1.9,0.7,39.8,3.2,44.6,3.2c4.9,0,13.6-6.7,17.3-7.6
				C90,158.3,115.2,156.1,118.8,155.8z"/>
		</g>
		<g class="st6">
			<path d="M115.3,167.4c-1.9,3.9-4.1,7.4-5.8,7.7c-2.7,0.5-11.6,2.1-21.6,3.2c-4.7,0.5-9.6,0.9-14.1,1c-0.6,0-1.2,0-1.8,0
				c-14.4,0.1-42.4,2.8-49-4c-0.1-0.1-0.2-0.2-0.2-0.3c-0.2-0.2-0.4-0.5-0.6-0.7c1.5,0.6,3.4,1.5,5.7,2.5c4.8,2.2,25.1,2.2,30.7,1.9
				c5.6-0.2,29.3-1,39.3-3.2C105.8,173.8,110.6,172,115.3,167.4z"/>
		</g>
		<g class="st10">
			<g>
				<path class="st8" d="M51.2,144.3c-12.4,0.9-18.4,2.5-27.3,3.8c-1.1,0.2-2.3,0.4-3,1.2c-0.8,0.9-0.6,2.2,0,3.2s1.6,1.7,2.7,2.2
					c7.7,4.3,17.3,4.4,26.1,3.1c8.8-1.3,17.4-4,26.3-4.8c9.7-0.9,19.6,0.3,29.4-0.5c0.9-0.1,1.9-0.2,2.6-0.7
					c1.2-0.9,1.3-2.7,0.6-3.9c-0.7-1.3-2-2.1-3.3-2.8c-8.8-4.6-19.5-3.8-29.5-2.9C67.4,142.8,59.3,143.6,51.2,144.3"/>
			</g>
		</g>
		<g>
			<polygon class="st11" points="73.5,158.6 68.2,161 65.8,160.3 68.3,161.6 70.9,165 69,161.3 			"/>
		</g>
		<g>
			<g>
				<path class="st1" d="M62.7,170.4c0,0-2-0.6-1.6,0.2s0.8,1,2,1.5s0.9-0.1,2.2-0.3c1.3-0.3,1.8-1,1-1.8
					C65.5,169.3,64.3,170.6,62.7,170.4z"/>
			</g>
			<g>
				<path class="st12" d="M62.6,170.3c0,0-2-0.6-1.6,0.2s0.8,1,2,1.5c1.2,0.5,0.9-0.1,2.2-0.3c1.3-0.3,1.8-1,1-1.8
					S64.1,170.4,62.6,170.3z"/>
			</g>
		</g>
		<g class="st10">
			<g>
				<path class="st8" d="M33,147.7c-1.9,0.4-4,0.9-5.6,1.3c-0.9,0.2-1.8,0.5-2.2,1.3c-0.4,0.9,0.3,1.9,1.2,2.2
					c0.9,0.4,1.9,0.3,2.9,0.3c4-0.3,7.9-0.6,11.9-0.8c3.9-0.3,7.8-0.5,11.6-1.3c4-0.8,7.9-2.1,11.9-2.8c4.9-0.8,10-0.7,15-0.5
					c6.2,0.2,12.4,0.4,18.6,0.6c1.1,0,2.6-0.3,2.7-1.3c0-0.8-0.8-1.3-1.6-1.6c-2.2-0.9-4.6-1.2-6.9-1.4c-15.6-1.5-31.1,2.1-46.8,2.9
					C41.5,146.6,37.1,146.6,33,147.7"/>
			</g>
		</g>
	</g>
	<g class="st5">
		<polygon points="293.9,187.3 286.2,163.3 269.1,152.1 245.5,146.4 228,153.7 213.7,166 298.5,201.4 		"/>
	</g>
	<g>
		<g>
			<path class="st3" d="M276.3,180.9c-3.5,15.1-7,26.4-10.4,35.1c-6.8,17.2-13.4,23.4-19.4,25.7c-2.8,1.1-5.5,1.3-8,1.4
				c-9,0.4-29.4,1.6-34.9,1.9c-0.9,0.1-1.4,0.1-1.4,0.1s-31.3-3.7-32.3-3.7s-27.8,3.7-31.1,3.7c-0.1,0-0.2,0-0.3,0
				c-1.5-0.2-21.4-8.7-23.6-15.4c-0.3-0.8-0.5-1.9-0.8-3.2c-0.6-3.1-1.2-7.5-1.7-12.1c-1.2-11-2.2-23.5-2.2-23.5l45.7-12.9
				l102.8,2.5L276.3,180.9z"/>
		</g>
		<g class="st5">
			<path d="M276.3,180.9c-13.7,59.2-27.4,61.7-37.8,62.2c-10.4,0.5-36.3,2-36.3,2s-31.3-3.7-32.3-3.7s-29.9,4-31.3,3.7
				c-1.5-0.2-21.4-8.7-23.6-15.4c-0.8-2.5-1.7-8.7-2.5-15.3c6.2,5.1,19.7,15.4,27.3,15.8c10.1,0.6,31.5-5.6,38.8-4.9
				c7.3,0.7,24.1,5.5,37.7,4.9c13.6-0.6,38.1-27.1,38.1-39.8c0-3.2,1.8-6.6,4.5-9.9L276.3,180.9z"/>
		</g>
		<g class="st5">
			<path d="M175.8,190.6c-0.6,4.3-6,50.8-6,50.8c-1,0-27.8,3.7-31.1,3.7l1.5-38.7l6.5-8.8l7.4-14.6
				C154.2,183.1,176.4,186.3,175.8,190.6z"/>
		</g>
		<g class="st5">
			<path class="st16" d="M246.5,241.7c-2.8,1.1-5.5,1.3-8,1.4c-9,0.4-29.4,1.6-34.9,1.9l3.5-34.8l6.5-10.5l26.9-6.5l2.8,13.1
				L246.5,241.7z"/>
		</g>
		<g>
			<path class="st4" d="M276.3,180.9c0,0-0.7,0.8-1.9,2.2l0,0l0,0c-5.5,6.1-21.5,23-32.7,23.3c-13.7,0.4-34.7,3.8-34.7,3.8
				s-23-8.2-32.3-8.6c-9.3-0.4-34.5,4.8-34.5,4.8s-24.7-7.6-29.2-13.4l0,0c-0.3-0.4-0.5-0.8-0.6-1.2c-1.5-5.8,7.3-19.6,21.6-26.1
				c9-4.1,21-6.9,28.7-8.5c5-1,10.2-1.4,15.3-1.2C230.3,158.2,276.3,180.9,276.3,180.9z"/>
		</g>
		<g class="st17">
			<path d="M265.9,216c-6.8,17.2-13.4,23.4-19.4,25.7c-2.8,1.1-5.5,1.3-8,1.4c-9,0.4-29.4,1.6-34.9,1.9c-0.9,0.1-1.4,0.1-1.4,0.1
				s-31.3-3.7-32.3-3.7s-27.8,3.7-31.1,3.7c-0.1,0-0.2,0-0.3,0c-1.5-0.2-21.4-8.7-23.6-15.4c-0.3-0.8-0.5-1.9-0.8-3.2
				c2.1,3,5.5,6.6,10.4,8.8c9.9,4.3,12.9,7.3,27.8,5.6c14.9-1.7,19.2-2.8,37.3-0.6s39.2,0.6,50.2-0.9
				C247.3,238.3,258.4,228,265.9,216z"/>
		</g>
		<g>
			<polygon class="st1" points="138,204.6 148.3,188.7 141.4,205.2 			"/>
		</g>
		<g>
			<polygon class="st1" points="242.8,205.2 225,188.7 245.3,204.2 			"/>
		</g>
		<g class="st2">
			<path class="st16" d="M169.4,159.2c-1.9,0-3.8,0.2-5.7,0.4c-8.1,1.1-30.3,4.9-35.7,14.2c-6.7,11.4,7.5,10.7,23.9,8.2
				s47.8-0.2,58,1.5s30.4,9.2,44.3,1.5C267.7,177.5,213.7,158.4,169.4,159.2z"/>
		</g>
		<g class="st17">
			<path class="st16" d="M186.8,161.7c0,0-7.7-1.1-19.5,0.3c-11.3,1.3-27.7,4.1-31.5,8.6s9.1,1,20.9-2.3c11.8-3.4,37.9-2.9,47.9,0.4
				c10,3.3,40,13,43.8,12.2c3.8-0.7-9.1-7.9-28.3-12.5C201.3,163.9,186.8,161.7,186.8,161.7z"/>
		</g>
		<g>
			<polygon class="st18" points="150.1,210.3 141.9,214.3 150.1,212.1 154.7,218.8 151.3,211.3 151.9,207.8 			"/>
		</g>
		<g>
			<polygon class="st18" points="259,204.7 256.5,201.8 257.9,205.4 254.8,212.1 258.6,206.2 266,205.5 			"/>
		</g>
		<g>
			<path class="st1" d="M274.4,183.1c-5.5,6.1-21.5,23-32.7,23.3c-13.7,0.4-34.7,3.8-34.7,3.8s-23-8.2-32.3-8.6
				c-9.3-0.4-34.5,4.8-34.5,4.8s-24.7-7.6-29.2-13.4l0,0c0,0,24.3,10.4,29.4,10.5c5.1,0.1,27.6-6.6,43.9-2s23.9,5.2,23.9,5.2
				s30.9-3,34.4-3.2C246.2,203.4,274.2,183.3,274.4,183.1z"/>
		</g>
	</g>
	<g>
		<g class="st0">
			<ellipse class="st1" cx="104.7" cy="99.9" rx="59.4" ry="7.6"/>
		</g>
		<g class="st2">
			<ellipse cx="105.6" cy="98.9" rx="47.1" ry="4.7"/>
		</g>
		<g>
			<g>
				<g>
					<path class="st3" d="M136.9,100.9c-0.4,0.1-0.9,0.2-1.3,0.2c-2.3,0.1-5.5,0.2-8.9,0.3c-5.6,0.1-12.1,0.2-17.3,0.2
						c-4.4,0-7.9-0.2-9-0.4c-3.2-0.8-22.1-0.4-27.8-2.7c-5.7-2.3-17.5-7.6-18.7-11.5c-0.1-0.3-0.2-0.7-0.3-1.1
						c-1.3-4.9-4.2-16.3-5.8-20.7c-1.7-4.7-3.1-11.5-3.1-11.5l4.8-0.5l9.5-0.9L83.6,44l19.2,2.5l39.3,0.6h3.3l10.7,0.2
						C163.3,73.9,146.5,98.5,136.9,100.9z"/>
				</g>
				<g class="st5">
					<path d="M140.4,72.8c0,0-1.4,18.2-3.5,28c-0.4,0.1-0.9,0.2-1.3,0.2c-6.1,0.2-17.9,0.5-26.2,0.4c-4.8-9.6-11.1-23.3-12.2-25.2
						c-1.7-3-6.2-7.7-4-12.1s1.9-6.6,14.5-8.8c12.6-2.3,13.1-3.3,17.1-2c4.1,1.3,10.3,1.9,11.9,3.8C138.4,59,140.4,72.8,140.4,72.8z
						"/>
				</g>
				<g class="st2">
					<path d="M136.9,100.9c-0.4,0.1-0.9,0.2-1.3,0.2c-6.1,0.2-17.9,0.5-26.2,0.4c-4.4,0-7.9-0.2-9-0.4c-3.2-0.8-22.1-0.4-27.8-2.7
						c-5.7-2.3-17.5-7.6-18.7-11.5c-0.1-0.3-0.2-0.7-0.3-1.1C57,88,64.1,92.4,70,94.6c8,3,26.1,3,30.4,4.2c4.3,1.1,8,0.7,8,0.7
						s12.7-9.9,15.3-17.6l13.6,16.8c0,0,21.9-19.1,9.2-41.1c-2.5-4.4-3.8-7.9-4.3-10.7l14,0.2C163.3,73.9,146.5,98.5,136.9,100.9z"
						/>
				</g>
				<g class="st5">
					<path d="M136.9,100.9c-0.4,0.1-0.9,0.2-1.3,0.2c-6.1,0.2-17.9,0.5-26.2,0.4c-4.4,0-7.9-0.2-9-0.4c-3.2-0.8-22.1-0.4-27.8-2.7
						c-5.7-2.3-17.5-7.6-18.7-11.5c-0.1-0.3-0.2-0.7-0.3-1.1c-1.3-4.9-4.2-16.3-5.8-20.7c-1.7-4.7-3.1-11.5-3.1-11.5l4.8-0.5l7,3.6
						c0,0-3.5,35.9,49.2,37.4l16.7-37.4l23-9.7l10.7,0.2C163.3,73.9,146.5,98.5,136.9,100.9z"/>
				</g>
				<g class="st5">
					<path d="M126.7,101.3c-5.6,0.1-12.1,0.2-17.3,0.2L97.2,76.3l23.2-15l3.3,20.6L126.7,101.3z"/>
				</g>
				<g>
					<path class="st4" d="M140.4,72.8c-1,0-16.2-10-20-9.5c-0.1,0-0.2,0-0.4,0.1l0,0c-0.4,0.1-0.8,0.3-1.4,0.6
						C113,67.2,99,78.9,89.9,77c-10.3-2.1-26.3-5.5-27.6-7.4c-1.2-1.8-17.4-12.2-17.7-16.8c0-0.4,0-0.7,0.2-1
						c2.5-4,15.8-18.9,15.8-18.9c0.1-0.1,0.3-0.2,0.5-0.4c3.9-2.7,26.1-11.6,34.2-12.1c8.6-0.6,22.8-0.6,29.3,3.8
						c2.8,1.9,9,5.8,15.2,9.8c8,5.3,16,10.9,16.4,13.1C156.9,50.9,141.3,72.8,140.4,72.8z"/>
				</g>
				<g class="st19">
					<path d="M139.8,34c-5,1.1-14.3,0.2-20.7-1.9c-8.8-2.9-15.7-0.6-20.9,0.4c-5.2,1-20.7,3.1-25.9,2.5c-5.2-0.5-11.2-2.5-11.2-2.5
						c3.9-2.7,26.1-11.6,34.2-12.1c8.6-0.6,22.8-0.6,29.3,3.8C127.4,26.1,133.6,30,139.8,34z"/>
				</g>
				<g>
					<path class="st1" d="M118.6,64.1C113,67.2,99,78.9,89.9,77c-10.3-2.1-26.3-5.5-27.6-7.4c-1.2-1.8-17.4-12.2-17.7-16.8
						c0.3,0.3,16.7,15.2,20,15.3s25.5,7.7,29.4,6.5C97.3,73.7,113.8,66.3,118.6,64.1z"/>
				</g>
				<g>
					<polygon class="st1" points="62.6,68.2 77.4,45.7 64.7,69.3 					"/>
				</g>
				<g>
					<polygon class="st11" points="135.4,41.5 144.2,49.1 136,60.9 146.7,49.1 153.5,48.3 145.6,47.6 					"/>
				</g>
				<g class="st9">
					<path class="st8" d="M104.3,22.1c0,0-6.7-0.9-18.4,2.5C74.2,27.9,62,33.7,61.1,36.5s10.6,7.7,27.3,7.8
						c16.8,0.1,31.1-4.2,40.9-1.5s19.5-0.2,9.5-6.6C128.9,29.7,111.7,22.2,104.3,22.1z"/>
				</g>
			</g>
			<g>
				<g>
					<path class="st1" d="M78,78.3c0,0-3.3-2.1-3.8-0.9c-0.5,1.1,0.1,1.6,1.9,3s2.1,0.6,5.4,1.3c3.3,0.7,5.6,0.2,4.9-1.3
						C85.7,78.9,81,79.5,78,78.3z"/>
				</g>
				<g>
					<path class="st12" d="M78,78c0,0-3.3-2.1-3.8-0.9c-0.5,1.1,0.1,1.6,1.9,3s2.1,0.6,5.4,1.3c3.3,0.7,5.6,0.2,4.9-1.3
						C85.7,78.6,81,79.2,78,78z"/>
				</g>
			</g>
			<g>
				<g>
					<path class="st1" d="M145.1,73.9c0,0-2.3,1.7-2.5,2.8c-0.2,1.1,0,2.3,1.1,2.2c1.1-0.1,2.8-2.8,3.3-3.6S146.8,72.8,145.1,73.9z"
						/>
				</g>
				<g>
					<path class="st12" d="M145.2,73.5c0,0-2.3,1.7-2.5,2.8c-0.2,1.1,0,2.3,1.1,2.2c1.1-0.1,2.8-2.8,3.3-3.6
						C147.7,74.2,146.9,72.5,145.2,73.5z"/>
				</g>
			</g>
		</g>
	</g>
	<g class="st5">
		<polygon points="423.5,169.5 402.7,151.3 380,148.7 353.9,153.6 340.8,167.6 333.6,184.8 435.7,180.1 		"/>
	</g>
	<g>
		<g class="st0">
			<ellipse class="st1" cx="418.4" cy="226.8" rx="59.4" ry="7.6"/>
		</g>
		<g class="st2">
			<ellipse cx="419.3" cy="225.8" rx="47.1" ry="4.7"/>
		</g>
		<g>
			<g>
				<g>
					<path class="st3" d="M450.6,227.8c-0.4,0.1-0.9,0.2-1.3,0.2c-2.3,0.1-5.5,0.2-8.9,0.3c-5.6,0.1-12.1,0.2-17.3,0.2
						c-4.4,0-7.9-0.2-9-0.4c-3.2-0.8-22.1-0.4-27.8-2.7c-5.7-2.3-17.5-7.6-18.7-11.5c-0.1-0.3-0.2-0.7-0.3-1.1
						c-1.3-4.9-4.2-16.3-5.8-20.7c-1.7-4.7-3.1-11.5-3.1-11.5l4.8-0.5l9.5-0.9l24.6-8.3l19.2,2.5l39.3,0.6h3.3l10.7,0.2
						C477,200.8,460.2,225.4,450.6,227.8z"/>
				</g>
				<g class="st5">
					<path d="M454.1,199.8c0,0-1.4,18.2-3.5,28c-0.4,0.1-0.9,0.2-1.3,0.2c-6.1,0.2-17.9,0.5-26.2,0.4c-4.8-9.6-11.1-23.3-12.2-25.2
						c-1.7-3-6.2-7.7-4-12.1c2.2-4.4,1.9-6.6,14.5-8.8c12.6-2.3,13.1-3.3,17.1-2c4.1,1.3,10.3,1.9,11.9,3.8
						C452.1,186,454.1,199.8,454.1,199.8z"/>
				</g>
				<g class="st2">
					<path d="M450.6,227.8c-0.4,0.1-0.9,0.2-1.3,0.2c-6.1,0.2-17.9,0.5-26.2,0.4c-4.4,0-7.9-0.2-9-0.4c-3.2-0.8-22.1-0.4-27.8-2.7
						c-5.7-2.3-17.5-7.6-18.7-11.5c-0.1-0.3-0.2-0.7-0.3-1.1c3.4,2.2,10.5,6.6,16.4,8.8c8,3,26.1,3,30.4,4.2c4.3,1.1,8,0.7,8,0.7
						s12.7-9.9,15.3-17.6l13.6,16.8c0,0,21.9-19.1,9.2-41.1c-2.5-4.4-3.8-7.9-4.3-10.7l14,0.2C477,200.8,460.2,225.4,450.6,227.8z"
						/>
				</g>
				<g class="st5">
					<path d="M450.6,227.8c-0.4,0.1-0.9,0.2-1.3,0.2c-6.1,0.2-17.9,0.5-26.2,0.4c-4.4,0-7.9-0.2-9-0.4c-3.2-0.8-22.1-0.4-27.8-2.7
						c-5.7-2.3-17.5-7.6-18.7-11.5c-0.1-0.3-0.2-0.7-0.3-1.1c-1.3-4.9-4.2-16.3-5.8-20.7c-1.7-4.7-3.1-11.5-3.1-11.5l4.8-0.5l7,3.6
						c0,0-3.5,35.9,49.2,37.4l16.7-37.4l23-9.7l10.7,0.2C477,200.8,460.2,225.4,450.6,227.8z"/>
				</g>
				<g class="st5">
					<path d="M440.4,228.3c-5.6,0.1-12.1,0.2-17.3,0.2l-12.2-25.2l23.2-15l3.3,20.6L440.4,228.3z"/>
				</g>
				<g>
					<path class="st4" d="M454.1,199.8c-1,0-16.2-10-20-9.5c-0.1,0-0.2,0-0.4,0.1l0,0c-0.4,0.1-0.8,0.3-1.4,0.6
						c-5.7,3.1-19.6,14.8-28.7,12.9c-10.3-2.1-26.3-5.5-27.6-7.4c-1.2-1.8-17.4-12.2-17.7-16.8c0-0.4,0-0.7,0.2-1
						c2.5-4,15.8-18.9,15.8-18.9c0.1-0.1,0.3-0.2,0.5-0.4c3.9-2.7,26.1-11.6,34.2-12.1c8.6-0.6,22.8-0.6,29.3,3.8
						c2.8,1.9,9,5.8,15.2,9.8c8,5.3,16,10.9,16.4,13.1C470.6,177.8,455,199.8,454.1,199.8z"/>
				</g>
				<g class="st19">
					<path d="M453.5,161c-5,1.1-14.3,0.2-20.7-1.9c-8.8-2.9-15.7-0.6-20.9,0.4c-5.2,1-20.7,3.1-25.9,2.5s-11.2-2.5-11.2-2.5
						c3.9-2.7,26.1-11.6,34.2-12.1c8.6-0.6,22.8-0.6,29.3,3.8C441.1,153,447.3,156.9,453.5,161z"/>
				</g>
				<g>
					<path class="st1" d="M432.4,191c-5.7,3.1-19.6,14.8-28.7,12.9c-10.3-2.1-26.3-5.5-27.6-7.4c-1.2-1.8-17.4-12.2-17.7-16.8
						c0.3,0.3,16.7,15.2,20,15.3s25.5,7.7,29.4,6.5C411,200.6,427.5,193.2,432.4,191z"/>
				</g>
				<g>
					<polygon class="st1" points="376.3,195.1 391.1,172.6 378.4,196.2 					"/>
				</g>
				<g>
					<polygon class="st11" points="449.1,168.5 457.9,176.1 449.8,187.8 460.4,176.1 467.2,175.2 459.3,174.5 					"/>
				</g>
				<g class="st9">
					<path class="st8" d="M418,149c0,0-6.7-0.9-18.4,2.5c-11.7,3.3-23.9,9.1-24.8,11.9c-0.9,2.8,10.6,7.7,27.3,7.8
						c16.8,0.1,31.1-4.2,40.9-1.5s19.5-0.2,9.5-6.6C442.6,156.6,425.4,149.1,418,149z"/>
				</g>
			</g>
			<g>
				<g>
					<path class="st1" d="M391.7,205.2c0,0-3.3-2.1-3.8-0.9c-0.5,1.1,0.1,1.6,1.9,3s2.1,0.6,5.4,1.3s5.6,0.2,4.9-1.3
						C399.4,205.9,394.8,206.5,391.7,205.2z"/>
				</g>
				<g>
					<path class="st12" d="M391.7,204.9c0,0-3.3-2.1-3.8-0.9c-0.5,1.1,0.1,1.6,1.9,3s2.1,0.6,5.4,1.3s5.6,0.2,4.9-1.3
						C399.4,205.6,394.8,206.2,391.7,204.9z"/>
				</g>
			</g>
			<g>
				<g>
					<path class="st1" d="M458.8,200.8c0,0-2.3,1.7-2.5,2.8s0,2.3,1.1,2.2s2.8-2.8,3.3-3.6C461.3,201.5,460.5,199.8,458.8,200.8z"/>
				</g>
				<g>
					<path class="st12" d="M458.9,200.5c0,0-2.3,1.7-2.5,2.8s0,2.3,1.1,2.2s2.8-2.8,3.3-3.6C461.4,201.1,460.6,199.4,458.9,200.5z"
						/>
				</g>
			</g>
		</g>
	</g>
	<g>
		<rect y="470.6" class="st20" width="500" height="23.7"/>
	</g>
	<g class="st21">
		<path d="M157,476.5l-0.8,2.5h-1.1l2.7-8.1h1.3l2.8,8.1h-1.1l-0.9-2.5H157z M159.6,475.7l-0.8-2.3c-0.2-0.5-0.3-1-0.4-1.5h0
			c-0.1,0.5-0.3,1-0.4,1.5l-0.8,2.3H159.6z"/>
		<path d="M164.1,471.9v1.4h1.5v0.8h-1.5v3.1c0,0.7,0.2,1.1,0.8,1.1c0.3,0,0.5,0,0.6-0.1l0,0.8c-0.2,0.1-0.5,0.2-0.9,0.2
			c-0.5,0-0.9-0.2-1.1-0.5c-0.3-0.3-0.4-0.8-0.4-1.5v-3.2h-0.9v-0.8h0.9v-1.1L164.1,471.9z"/>
		<path d="M168.1,471.9v1.4h1.5v0.8h-1.5v3.1c0,0.7,0.2,1.1,0.8,1.1c0.3,0,0.5,0,0.6-0.1l0,0.8c-0.2,0.1-0.5,0.2-0.9,0.2
			c-0.5,0-0.9-0.2-1.1-0.5c-0.3-0.3-0.4-0.8-0.4-1.5v-3.2h-0.9v-0.8h0.9v-1.1L168.1,471.9z"/>
		<path d="M170.8,475.1c0-0.7,0-1.3,0-1.8h0.9l0,1.1h0c0.3-0.8,0.9-1.3,1.6-1.3c0.1,0,0.2,0,0.3,0v1c-0.1,0-0.2,0-0.4,0
			c-0.7,0-1.3,0.6-1.4,1.4c0,0.1,0,0.3,0,0.5v3.1h-1V475.1z"/>
		<path d="M175.9,471.7c0,0.4-0.3,0.6-0.7,0.6c-0.4,0-0.6-0.3-0.6-0.6c0-0.4,0.3-0.7,0.7-0.7C175.7,471,175.9,471.3,175.9,471.7z
			 M174.8,479.1v-5.8h1.1v5.8H174.8z"/>
		<path d="M177.6,470.6h1v3.6h0c0.4-0.6,1-1.1,2-1.1c1.4,0,2.5,1.2,2.4,3c0,2.1-1.3,3.1-2.6,3.1c-0.8,0-1.5-0.3-1.9-1.1h0l0,1h-0.9
			c0-0.4,0-1,0-1.5V470.6z M178.6,476.8c0,0.1,0,0.3,0,0.4c0.2,0.7,0.8,1.2,1.6,1.2c1.1,0,1.8-0.9,1.8-2.2c0-1.2-0.6-2.2-1.7-2.2
			c-0.7,0-1.4,0.5-1.6,1.3c0,0.1-0.1,0.3-0.1,0.4V476.8z"/>
		<path d="M189.3,477.5c0,0.6,0,1.1,0,1.6h-0.9l-0.1-0.9h0c-0.3,0.5-0.9,1.1-1.9,1.1c-0.9,0-2-0.5-2-2.5v-3.4h1.1v3.2
			c0,1.1,0.3,1.8,1.3,1.8c0.7,0,1.2-0.5,1.4-1c0.1-0.2,0.1-0.3,0.1-0.5v-3.6h1.1V477.5z"/>
		<path d="M192.3,471.9v1.4h1.5v0.8h-1.5v3.1c0,0.7,0.2,1.1,0.8,1.1c0.3,0,0.5,0,0.6-0.1l0,0.8c-0.2,0.1-0.5,0.2-0.9,0.2
			c-0.5,0-0.9-0.2-1.1-0.5c-0.3-0.3-0.4-0.8-0.4-1.5v-3.2h-0.9v-0.8h0.9v-1.1L192.3,471.9z"/>
		<path d="M196.2,471.7c0,0.4-0.3,0.6-0.7,0.6c-0.4,0-0.6-0.3-0.6-0.6c0-0.4,0.3-0.7,0.7-0.7C195.9,471,196.2,471.3,196.2,471.7z
			 M195,479.1v-5.8h1.1v5.8H195z"/>
		<path d="M203,476.1c0,2.1-1.5,3.1-2.9,3.1c-1.6,0-2.8-1.2-2.8-3c0-1.9,1.3-3.1,2.9-3.1C201.9,473.2,203,474.4,203,476.1z
			 M198.4,476.2c0,1.3,0.7,2.2,1.8,2.2c1,0,1.8-0.9,1.8-2.3c0-1-0.5-2.2-1.7-2.2C199,473.9,198.4,475.1,198.4,476.2z"/>
		<path d="M204.4,474.9c0-0.6,0-1.1,0-1.6h0.9l0.1,1h0c0.3-0.6,1-1.1,1.9-1.1c0.8,0,2.1,0.5,2.1,2.5v3.5h-1.1v-3.3
			c0-0.9-0.3-1.7-1.3-1.7c-0.7,0-1.2,0.5-1.4,1.1c0,0.1-0.1,0.3-0.1,0.5v3.5h-1.1V474.9z"/>
		<path d="M211.5,475c-0.4,0-0.7-0.3-0.7-0.7c0-0.4,0.3-0.8,0.7-0.8s0.7,0.3,0.7,0.8C212.2,474.7,211.9,475,211.5,475L211.5,475z
			 M211.5,479.2c-0.4,0-0.7-0.3-0.7-0.7c0-0.4,0.3-0.8,0.7-0.8s0.7,0.3,0.7,0.8C212.2,478.9,211.9,479.2,211.5,479.2L211.5,479.2z"
			/>
		<path d="M216,477.8c0.5,0.3,1.2,0.5,1.9,0.5c1.1,0,1.7-0.6,1.7-1.4c0-0.8-0.4-1.2-1.5-1.6c-1.3-0.5-2.1-1.2-2.1-2.3
			c0-1.3,1-2.2,2.6-2.2c0.8,0,1.4,0.2,1.8,0.4l-0.3,0.9c-0.3-0.1-0.8-0.4-1.5-0.4c-1.1,0-1.5,0.7-1.5,1.2c0,0.8,0.5,1.1,1.6,1.6
			c1.4,0.5,2.1,1.2,2.1,2.4c0,1.2-0.9,2.3-2.8,2.3c-0.8,0-1.6-0.2-2.1-0.5L216,477.8z"/>
		<path d="M223.2,471.9v1.4h1.5v0.8h-1.5v3.1c0,0.7,0.2,1.1,0.8,1.1c0.3,0,0.5,0,0.6-0.1l0,0.8c-0.2,0.1-0.5,0.2-0.9,0.2
			c-0.5,0-0.9-0.2-1.1-0.5c-0.3-0.3-0.4-0.8-0.4-1.5v-3.2h-0.9v-0.8h0.9v-1.1L223.2,471.9z"/>
		<path d="M231.1,476.1c0,2.1-1.5,3.1-2.9,3.1c-1.6,0-2.8-1.2-2.8-3c0-1.9,1.3-3.1,2.9-3.1C230,473.2,231.1,474.4,231.1,476.1z
			 M226.5,476.2c0,1.3,0.7,2.2,1.8,2.2c1,0,1.8-0.9,1.8-2.3c0-1-0.5-2.2-1.7-2.2C227,473.9,226.5,475.1,226.5,476.2z"/>
		<path d="M232.4,474.9c0-0.6,0-1.1,0-1.6h0.9l0.1,1h0c0.3-0.6,1-1.1,1.9-1.1c0.8,0,2.1,0.5,2.1,2.5v3.5h-1.1v-3.3
			c0-0.9-0.3-1.7-1.3-1.7c-0.7,0-1.2,0.5-1.4,1.1c0,0.1-0.1,0.3-0.1,0.5v3.5h-1.1V474.9z"/>
		<path d="M239.7,476.4c0,1.4,0.9,2,2,2c0.8,0,1.2-0.1,1.6-0.3l0.2,0.8c-0.4,0.2-1,0.4-1.9,0.4c-1.8,0-2.9-1.2-2.9-2.9
			s1-3.1,2.7-3.1c1.9,0,2.4,1.7,2.4,2.7c0,0.2,0,0.4,0,0.5H239.7z M242.8,475.6c0-0.7-0.3-1.7-1.5-1.7c-1.1,0-1.5,1-1.6,1.7H242.8z"
			/>
		<path d="M249,479.1l-2.6-8.1h1.1l1.3,4c0.3,1.1,0.6,2.1,0.9,3h0c0.2-0.9,0.6-2,0.9-3l1.4-4h1.1l-2.9,8.1H249z"/>
		<path d="M254.1,476.4c0,1.4,0.9,2,2,2c0.8,0,1.2-0.1,1.6-0.3l0.2,0.8c-0.4,0.2-1,0.4-1.9,0.4c-1.8,0-2.9-1.2-2.9-2.9
			s1-3.1,2.7-3.1c1.9,0,2.4,1.7,2.4,2.7c0,0.2,0,0.4,0,0.5H254.1z M257.2,475.6c0-0.7-0.3-1.7-1.5-1.7c-1.1,0-1.5,1-1.6,1.7H257.2z"
			/>
		<path d="M263.7,478.9c-0.3,0.1-0.9,0.3-1.7,0.3c-1.8,0-2.9-1.2-2.9-3c0-1.8,1.2-3.1,3.1-3.1c0.6,0,1.2,0.2,1.5,0.3l-0.2,0.8
			c-0.3-0.1-0.6-0.3-1.2-0.3c-1.3,0-2.1,1-2.1,2.2c0,1.3,0.9,2.2,2,2.2c0.6,0,1-0.2,1.3-0.3L263.7,478.9z"/>
		<path d="M266.3,471.9v1.4h1.5v0.8h-1.5v3.1c0,0.7,0.2,1.1,0.8,1.1c0.3,0,0.5,0,0.6-0.1l0,0.8c-0.2,0.1-0.5,0.2-0.9,0.2
			c-0.5,0-0.9-0.2-1.1-0.5c-0.3-0.3-0.4-0.8-0.4-1.5v-3.2h-0.9v-0.8h0.9v-1.1L266.3,471.9z"/>
		<path d="M274.2,476.1c0,2.1-1.5,3.1-2.9,3.1c-1.6,0-2.8-1.2-2.8-3c0-1.9,1.3-3.1,2.9-3.1C273.1,473.2,274.2,474.4,274.2,476.1z
			 M269.6,476.2c0,1.3,0.7,2.2,1.8,2.2c1,0,1.8-0.9,1.8-2.3c0-1-0.5-2.2-1.7-2.2C270.2,473.9,269.6,475.1,269.6,476.2z"/>
		<path d="M275.6,475.1c0-0.7,0-1.3,0-1.8h0.9l0,1.1h0c0.3-0.8,0.9-1.3,1.6-1.3c0.1,0,0.2,0,0.3,0v1c-0.1,0-0.2,0-0.4,0
			c-0.7,0-1.3,0.6-1.4,1.4c0,0.1,0,0.3,0,0.5v3.1h-1V475.1z"/>
		<path d="M279.3,478c0.3,0.2,0.9,0.4,1.4,0.4c0.8,0,1.1-0.4,1.1-0.9c0-0.5-0.3-0.8-1.1-1.1c-1-0.4-1.5-0.9-1.5-1.6
			c0-0.9,0.8-1.7,2-1.7c0.6,0,1.1,0.2,1.4,0.4l-0.3,0.8c-0.2-0.1-0.6-0.3-1.2-0.3c-0.6,0-1,0.4-1,0.8c0,0.5,0.3,0.7,1.1,1
			c1,0.4,1.5,0.9,1.5,1.8c0,1-0.8,1.8-2.2,1.8c-0.6,0-1.2-0.2-1.6-0.4L279.3,478z"/>
		<path d="M286.8,470.6h1v3.6h0c0.4-0.6,1-1.1,2-1.1c1.4,0,2.5,1.2,2.4,3c0,2.1-1.3,3.1-2.6,3.1c-0.8,0-1.5-0.3-1.9-1.1h0l0,1h-0.9
			c0-0.4,0-1,0-1.5V470.6z M287.8,476.8c0,0.1,0,0.3,0,0.4c0.2,0.7,0.8,1.2,1.6,1.2c1.1,0,1.8-0.9,1.8-2.2c0-1.2-0.6-2.2-1.7-2.2
			c-0.7,0-1.4,0.5-1.6,1.3c0,0.1-0.1,0.3-0.1,0.4V476.8z"/>
		<path d="M293.9,473.3l1.3,3.4c0.1,0.4,0.3,0.8,0.4,1.2h0c0.1-0.3,0.2-0.8,0.4-1.2l1.2-3.4h1.1l-1.6,4.1c-0.8,2-1.3,3-2,3.6
			c-0.5,0.5-1,0.6-1.3,0.7l-0.3-0.9c0.3-0.1,0.6-0.3,0.9-0.5c0.3-0.2,0.6-0.6,0.9-1.2c0-0.1,0.1-0.2,0.1-0.3c0-0.1,0-0.1-0.1-0.3
			l-2.1-5.3H293.9z"/>
		<path d="M303.1,479.1l-2.6-8.1h1.1l1.3,4c0.3,1.1,0.6,2.1,0.9,3h0c0.2-0.9,0.6-2,0.9-3l1.4-4h1.1l-2.9,8.1H303.1z"/>
		<path d="M308.2,476.4c0,1.4,0.9,2,2,2c0.8,0,1.2-0.1,1.6-0.3l0.2,0.8c-0.4,0.2-1,0.4-1.9,0.4c-1.8,0-2.9-1.2-2.9-2.9
			s1-3.1,2.7-3.1c1.9,0,2.4,1.7,2.4,2.7c0,0.2,0,0.4,0,0.5H308.2z M311.3,475.6c0-0.7-0.3-1.7-1.5-1.7c-1.1,0-1.5,1-1.6,1.7H311.3z"
			/>
		<path d="M317.7,478.9c-0.3,0.1-0.9,0.3-1.7,0.3c-1.8,0-2.9-1.2-2.9-3c0-1.8,1.2-3.1,3.1-3.1c0.6,0,1.2,0.2,1.5,0.3l-0.2,0.8
			c-0.3-0.1-0.6-0.3-1.2-0.3c-1.3,0-2.1,1-2.1,2.2c0,1.3,0.9,2.2,2,2.2c0.6,0,1-0.2,1.3-0.3L317.7,478.9z"/>
		<path d="M320.4,471.9v1.4h1.5v0.8h-1.5v3.1c0,0.7,0.2,1.1,0.8,1.1c0.3,0,0.5,0,0.6-0.1l0,0.8c-0.2,0.1-0.5,0.2-0.9,0.2
			c-0.5,0-0.9-0.2-1.1-0.5c-0.3-0.3-0.4-0.8-0.4-1.5v-3.2h-0.9v-0.8h0.9v-1.1L320.4,471.9z"/>
		<path d="M323.6,476.4c0,1.4,0.9,2,2,2c0.8,0,1.2-0.1,1.6-0.3l0.2,0.8c-0.4,0.2-1,0.4-1.9,0.4c-1.8,0-2.9-1.2-2.9-2.9
			s1-3.1,2.7-3.1c1.9,0,2.4,1.7,2.4,2.7c0,0.2,0,0.4,0,0.5H323.6z M326.7,475.6c0-0.7-0.3-1.7-1.5-1.7c-1.1,0-1.5,1-1.6,1.7H326.7z"
			/>
		<path d="M329.6,476.4c0,1.4,0.9,2,2,2c0.8,0,1.2-0.1,1.6-0.3l0.2,0.8c-0.4,0.2-1,0.4-1.9,0.4c-1.8,0-2.9-1.2-2.9-2.9
			s1-3.1,2.7-3.1c1.9,0,2.4,1.7,2.4,2.7c0,0.2,0,0.4,0,0.5H329.6z M332.7,475.6c0-0.7-0.3-1.7-1.5-1.7c-1.1,0-1.5,1-1.6,1.7H332.7z"
			/>
		<path d="M334.4,478.5l2.6-3.4c0.3-0.3,0.5-0.6,0.8-0.9v0h-3.1v-0.9h4.4l0,0.7l-2.6,3.4c-0.2,0.3-0.5,0.6-0.7,0.9v0h3.4v0.8h-4.7
			V478.5z"/>
		<path d="M340.9,473.3l1.3,3.4c0.1,0.4,0.3,0.8,0.4,1.2h0c0.1-0.3,0.2-0.8,0.4-1.2l1.2-3.4h1.1l-1.6,4.1c-0.8,2-1.3,3-2,3.6
			c-0.5,0.5-1,0.6-1.3,0.7l-0.3-0.9c0.3-0.1,0.6-0.3,0.9-0.5c0.3-0.2,0.6-0.6,0.9-1.2c0-0.1,0.1-0.2,0.1-0.3c0-0.1,0-0.1-0.1-0.3
			l-2.1-5.3H340.9z"/>
	</g>
	<g>
		<polygon class="st12" points="358.9,102.8 363,115.4 355.5,135.2 359,141.3 358.4,134.8 369.2,113.9 		"/>
	</g>
	<g>
		<polygon class="st12" points="184.5,122.2 188.6,129 181.2,139.6 184.6,142.8 184.1,139.4 194.8,128.2 		"/>
	</g>
	<g>
		<polygon class="st12" points="286.5,119.8 291.6,113.7 304,117.5 306.1,113.2 302.9,114.8 288.9,108.1 		"/>
	</g>
	<g>
		<polygon class="st12" points="186.5,220.2 190.6,226.9 183.2,237.6 186.6,240.8 186.1,237.4 196.8,226.2 		"/>
	</g>
	<g>
		<path class="st22" d="M214.4,218.1c0,0,1.4-4.2,3.2-3.7s4.1,1,6.5,0.1s5.3-4.2,7.4-2.9c2.1,1.4,2,4.1-2.4,5.3
			c-4.3,1.2-6.7,2.8-9.7,3C216.3,220.2,213.8,221.8,214.4,218.1z"/>
	</g>
	<g>
		<path class="st22" d="M120.8,211.8c0,0-4.1-2.2-4.4,0.6c-0.3,2.9,3.3,4.6,5.6,4.8c2.3,0.2,4.1-1.5,4.5-2.9
			C126.9,212.9,122.8,212.5,120.8,211.8z"/>
	</g>
</g>
</svg>
